<?xml version="1.0" encoding="UTF-8"?>
<svg version="1.1" xmlns="http://www.w3.org/2000/svg" width="593" height="605">
<path d="M0 0 C195.69 0 391.38 0 593 0 C593 199.65 593 399.3 593 605 C397.31 605 201.62 605 0 605 C0 405.35 0 205.7 0 0 Z " fill="#000000" transform="translate(0,0)"/>
<path d="M0 0 C2.59411725 0.8610544 5.20225933 1.28641621 7.90795898 1.63330078 C7.90795898 2.29330078 7.90795898 2.95330078 7.90795898 3.63330078 C9.06424805 3.94074219 9.06424805 3.94074219 10.24389648 4.25439453 C11.24678711 4.52380859 12.24967773 4.79322266 13.28295898 5.07080078 C14.77956055 5.47105469 14.77956055 5.47105469 16.30639648 5.87939453 C18.90795898 6.63330078 18.90795898 6.63330078 20.90795898 7.63330078 C20.90795898 8.29330078 20.90795898 8.95330078 20.90795898 9.63330078 C22.08358398 10.09736328 22.08358398 10.09736328 23.28295898 10.57080078 C25.90795898 11.63330078 25.90795898 11.63330078 27.90795898 12.63330078 C27.90795898 13.29330078 27.90795898 13.95330078 27.90795898 14.63330078 C28.56795898 14.67455078 29.22795898 14.71580078 29.90795898 14.75830078 C34.34154789 16.05143088 37.33021754 18.78780803 40.90795898 21.63330078 C41.6569043 22.17341797 42.40584961 22.71353516 43.17749023 23.27001953 C48.72653456 27.32545397 53.21179545 31.79787861 56.90795898 37.63330078 C56.90795898 38.29330078 56.90795898 38.95330078 56.90795898 39.63330078 C57.50608398 39.65392578 58.10420898 39.67455078 58.72045898 39.69580078 C60.90795898 40.63330078 60.90795898 40.63330078 62.40795898 43.75830078 C62.64256836 44.38994141 62.87717773 45.02158203 63.11889648 45.67236328 C63.91723948 47.65636418 64.89612931 49.32582339 66.03295898 51.13330078 C68.07880094 54.95220576 68.56139083 57.3878409 68.90795898 61.63330078 C69.56795898 61.63330078 70.22795898 61.63330078 70.90795898 61.63330078 C70.90795898 62.62330078 70.90795898 63.61330078 70.90795898 64.63330078 C71.56795898 64.63330078 72.22795898 64.63330078 72.90795898 64.63330078 C73.16319336 65.67164063 73.16319336 65.67164063 73.42358398 66.73095703 C73.66592773 67.70935547 73.90827148 68.68775391 74.15795898 69.69580078 C74.42737305 70.79021484 74.69678711 71.88462891 74.97436523 73.01220703 C75.60765152 75.46850991 76.28371508 77.91410382 76.99780273 80.34814453 C79.30928097 88.31904277 80.46430386 95.33448974 79.90795898 103.63330078 C78.68979492 103.69388672 77.47163086 103.75447266 76.21655273 103.81689453 C74.59284622 103.90136481 72.96914877 103.9860095 71.34545898 104.07080078 C70.5455957 104.11011719 69.74573242 104.14943359 68.92163086 104.18994141 C68.13208008 104.23183594 67.3425293 104.27373047 66.52905273 104.31689453 C65.81160889 104.35355225 65.09416504 104.39020996 64.35498047 104.42797852 C62.4381671 104.5888126 60.52885997 104.83953462 58.62646484 105.12402344 C54.68125399 105.66434974 50.76425238 105.91919869 46.79077148 106.09814453 C45.209224 106.17560783 43.62768121 106.25316688 42.04614258 106.33081055 C41.22684265 106.36989532 40.40754272 106.4089801 39.56341553 106.44924927 C27.1251229 107.04672773 14.69683835 107.70348053 2.28295898 108.69580078 C1.27249512 108.77499756 0.26203125 108.85419434 -0.77905273 108.93579102 C-5.48410372 109.27822415 -5.48410372 109.27822415 -10.10424805 110.15625 C-12.27940694 110.67826676 -14.18545885 110.74691923 -16.42016602 110.73095703 C-17.21938477 110.72773438 -18.01860352 110.72451172 -18.84204102 110.72119141 C-19.66704102 110.7128125 -20.49204102 110.70443359 -21.34204102 110.69580078 C-22.18250977 110.69128906 -23.02297852 110.68677734 -23.88891602 110.68212891 C-25.95665503 110.67038039 -28.02435726 110.652446 -30.09204102 110.63330078 C-32.34625369 104.3000366 -33.93851843 98.04925381 -35.24829102 91.45361328 C-36.14794448 88.44643828 -36.87537189 87.70871158 -39.09204102 85.63330078 C-39.77073242 84.22951172 -39.77073242 84.22951172 -40.46313477 82.79736328 C-44.6413935 74.68132114 -52.20084511 68.04651666 -60.85375977 65.20361328 C-63.58858584 64.50678151 -66.28354219 63.92893224 -69.09204102 63.63330078 C-69.09204102 62.97330078 -69.09204102 62.31330078 -69.09204102 61.63330078 C-80.64204102 61.63330078 -92.19204102 61.63330078 -104.09204102 61.63330078 C-104.09204102 62.29330078 -104.09204102 62.95330078 -104.09204102 63.63330078 C-104.79071289 63.81505859 -105.48938477 63.99681641 -106.20922852 64.18408203 C-107.11930664 64.43544922 -108.02938477 64.68681641 -108.96704102 64.94580078 C-109.87196289 65.18943359 -110.77688477 65.43306641 -111.70922852 65.68408203 C-114.41317421 66.4999993 -114.41317421 66.4999993 -116.09204102 69.63330078 C-116.87579102 70.08705078 -117.65954102 70.54080078 -118.46704102 71.00830078 C-122.73042533 73.64753869 -124.99744518 76.65038905 -126.34204102 81.44580078 C-127.75542736 88.17200545 -127.78839483 95.20882511 -125.09204102 101.63330078 C-122.59587908 104.57749179 -120.29749506 106.49633142 -117.09204102 108.63330078 C-117.09204102 109.29330078 -117.09204102 109.95330078 -117.09204102 110.63330078 C-116.28766602 110.73642578 -115.48329102 110.83955078 -114.65454102 110.94580078 C-111.12569705 111.62680576 -107.91493513 112.62745773 -104.53344727 113.81689453 C-98.47330281 115.84340684 -92.33012437 117.29357818 -86.09204102 118.63330078 C-80.69256254 119.79292032 -75.40085385 121.10017816 -70.09204102 122.63330078 C-67.37020216 123.3111953 -64.63807058 123.94193278 -61.90454102 124.57080078 C-56.74363674 125.76760539 -51.59822506 127.00079883 -46.46704102 128.32080078 C-42.34457769 129.36561242 -38.31644228 130.15325518 -34.09204102 130.63330078 C-34.09204102 131.29330078 -34.09204102 131.95330078 -34.09204102 132.63330078 C-33.02276367 132.689375 -33.02276367 132.689375 -31.93188477 132.74658203 C-30.49522461 132.84519531 -30.49522461 132.84519531 -29.02954102 132.94580078 C-28.08981445 133.00380859 -27.15008789 133.06181641 -26.18188477 133.12158203 C-23.25416843 133.60645035 -20.96457941 134.48565555 -18.28125 135.71264648 C-12.05704794 138.33018479 -5.47494442 140.16429714 0.94897461 142.22900391 C7.24814974 144.2890895 13.04855651 146.54551004 18.90795898 149.63330078 C21.2276934 150.42388417 23.52752138 151.03819138 25.90795898 151.63330078 C25.90795898 152.29330078 25.90795898 152.95330078 25.90795898 153.63330078 C26.71233398 153.78798828 26.71233398 153.78798828 27.53295898 153.94580078 C31.76294265 155.17026974 35.33151027 157.24508022 38.97045898 159.69580078 C41.59062826 161.42399754 43.96202793 162.59356041 46.90795898 163.63330078 C46.90795898 164.29330078 46.90795898 164.95330078 46.90795898 165.63330078 C47.45581055 165.88466797 48.00366211 166.13603516 48.56811523 166.39501953 C59.67565165 172.2732984 68.30000806 181.04090303 74.90795898 191.63330078 C74.90795898 192.62330078 74.90795898 193.61330078 74.90795898 194.63330078 C75.89795898 194.96330078 76.88795898 195.29330078 77.90795898 195.63330078 C79.43170049 198.07478335 80.78446347 200.45743066 82.09545898 203.00830078 C82.6475 204.03697266 82.6475 204.03697266 83.21069336 205.08642578 C85.90795898 210.23074686 85.90795898 210.23074686 85.90795898 213.63330078 C86.56795898 213.63330078 87.22795898 213.63330078 87.90795898 213.63330078 C90.20408655 225.15494087 90.20408655 225.15494087 89.90795898 230.63330078 C90.56795898 230.63330078 91.22795898 230.63330078 91.90795898 230.63330078 C94.11639182 249.32610726 94.41875849 269.50323349 88.90795898 287.63330078 C88.24795898 287.63330078 87.58795898 287.63330078 86.90795898 287.63330078 C86.76100586 288.77605469 86.76100586 288.77605469 86.61108398 289.94189453 C85.33712971 298.73876845 83.03573363 308.71063712 76.34545898 315.13330078 C74.73110105 316.62436902 74.73110105 316.62436902 73.97045898 319.07080078 C72.75694996 321.99749903 71.20093106 323.48826239 68.90795898 325.63330078 C68.57795898 326.29330078 68.24795898 326.95330078 67.90795898 327.63330078 C67.24795898 327.63330078 66.58795898 327.63330078 65.90795898 327.63330078 C65.57795898 328.95330078 65.24795898 330.27330078 64.90795898 331.63330078 C64.24795898 331.63330078 63.58795898 331.63330078 62.90795898 331.63330078 C62.68881836 332.17857422 62.46967773 332.72384766 62.24389648 333.28564453 C60.47242595 336.39866732 58.07530033 338.71701797 55.53295898 341.19580078 C55.05084961 341.67726563 54.56874023 342.15873047 54.07202148 342.65478516 C47.00711433 349.63330078 47.00711433 349.63330078 43.90795898 349.63330078 C43.90795898 350.29330078 43.90795898 350.95330078 43.90795898 351.63330078 C38.61384134 355.63330078 38.61384134 355.63330078 34.90795898 355.63330078 C34.90795898 356.29330078 34.90795898 356.95330078 34.90795898 357.63330078 C31.68650238 360.59704086 27.90085424 361.95208173 23.90795898 363.63330078 C22.70139648 364.43767578 22.70139648 364.43767578 21.47045898 365.25830078 C17.94098267 367.15216612 14.88782904 367.29602366 10.90795898 367.63330078 C10.90795898 368.29330078 10.90795898 368.95330078 10.90795898 369.63330078 C8.59795898 369.96330078 6.28795898 370.29330078 3.90795898 370.63330078 C3.90795898 371.29330078 3.90795898 371.95330078 3.90795898 372.63330078 C-5.80628996 375.63630046 -15.76409136 377.37251263 -25.7487793 379.19873047 C-27.63581721 379.54869166 -29.51894673 379.91969272 -31.40063477 380.29736328 C-45.06095888 383.01724951 -59.03440893 382.83639086 -72.90454102 382.82080078 C-74.2679361 382.82039291 -74.2679361 382.82039291 -75.65887451 382.81997681 C-88.36273798 382.8026199 -101.03293505 382.53877595 -113.71704102 381.82080078 C-114.39900543 381.78586517 -115.08096985 381.75092957 -115.78359985 381.7149353 C-123.19055452 381.32187637 -129.27357794 380.54128728 -136.09204102 377.63330078 C-139.15646576 377.01159886 -139.15646576 377.01159886 -142.15454102 376.69580078 C-154.35033815 374.97569991 -165.72143487 371.27014537 -177.09204102 366.63330078 C-178.4880957 366.08802734 -178.4880957 366.08802734 -179.91235352 365.53173828 C-184.42984876 363.76519536 -188.79909722 361.89274488 -193.09204102 359.63330078 C-193.09204102 358.97330078 -193.09204102 358.31330078 -193.09204102 357.63330078 C-193.81391602 357.38193359 -194.53579102 357.13056641 -195.27954102 356.87158203 C-207.14942197 351.64553722 -216.17938719 339.71041482 -223.64282227 329.46533203 C-225.18066592 327.41119803 -225.18066592 327.41119803 -227.84204102 325.19580078 C-230.61067365 322.04263583 -230.98346375 319.60379675 -231.53735352 315.52392578 C-231.72040039 314.90001953 -231.90344727 314.27611328 -232.09204102 313.63330078 C-233.08204102 313.30330078 -234.07204102 312.97330078 -235.09204102 312.63330078 C-236.23669559 310.29629769 -237.19117859 308.06242239 -238.09204102 305.63330078 C-238.35259277 304.95428711 -238.61314453 304.27527344 -238.8815918 303.57568359 C-244.09204102 289.88318352 -244.09204102 289.88318352 -244.09204102 285.63330078 C-244.75204102 285.63330078 -245.41204102 285.63330078 -246.09204102 285.63330078 C-251.29234918 258.93838553 -251.29234918 258.93838553 -251.09204102 250.63330078 C-247.77164109 249.6485415 -244.69247588 249.46711387 -241.23657227 249.38720703 C-240.0694873 249.355625 -238.90240234 249.32404297 -237.69995117 249.29150391 C-236.44746582 249.25992187 -235.19498047 249.22833984 -233.90454102 249.19580078 C-224.3141642 248.91446717 -214.77750891 248.46375389 -205.21704102 247.63330078 C-183.83084727 245.80434041 -162.54297003 245.48511177 -141.09204102 245.63330078 C-141.09204102 246.29330078 -141.09204102 246.95330078 -141.09204102 247.63330078 C-140.43204102 247.63330078 -139.77204102 247.63330078 -139.09204102 247.63330078 C-138.82649414 248.64650391 -138.56094727 249.65970703 -138.28735352 250.70361328 C-137.93068412 252.05520255 -137.57390759 253.40676356 -137.21704102 254.75830078 C-136.95600586 255.75603516 -136.95600586 255.75603516 -136.68969727 256.77392578 C-135.87522466 259.8508223 -135.01427616 262.86437349 -133.99829102 265.88330078 C-132.93483547 269.1103383 -132.49610666 272.26608708 -132.09204102 275.63330078 C-131.43204102 275.63330078 -130.77204102 275.63330078 -130.09204102 275.63330078 C-129.86516602 276.52017578 -129.63829102 277.40705078 -129.40454102 278.32080078 C-127.88748718 282.14955571 -126.12424283 283.88316425 -123.09204102 286.63330078 C-122.37016602 287.39642578 -121.64829102 288.15955078 -120.90454102 288.94580078 C-112.65983186 296.82407842 -105.36851523 302.36397066 -93.97094727 304.10595703 C-91.09204102 304.63330078 -91.09204102 304.63330078 -87.86499023 305.65405273 C-84.01020055 306.65454202 -80.81788931 306.8627072 -76.84594727 306.82861328 C-76.18997055 306.82578339 -75.53399384 306.82295349 -74.85813904 306.82003784 C-72.79007692 306.80896062 -70.72246928 306.78388141 -68.65454102 306.75830078 C-67.24113587 306.7482548 -65.82772385 306.7391318 -64.41430664 306.73095703 C-60.97340707 306.70906262 -57.5327685 306.6746213 -54.09204102 306.63330078 C-54.09204102 305.97330078 -54.09204102 305.31330078 -54.09204102 304.63330078 C-53.50036133 304.51212891 -52.90868164 304.39095703 -52.29907227 304.26611328 C-48.05400516 303.36585435 -44.06764441 302.42873457 -40.09204102 300.63330078 C-40.09204102 299.97330078 -40.09204102 299.31330078 -40.09204102 298.63330078 C-38.43137958 297.62335952 -36.76342631 296.62539401 -35.09204102 295.63330078 C-33.46411914 294.16029405 -31.88017979 292.63732802 -30.34204102 291.07080078 C-29.56344727 290.28576172 -28.78485352 289.50072266 -27.98266602 288.69189453 C-26.04828427 286.77547816 -26.04828427 286.77547816 -25.09204102 284.63330078 C-24.43204102 284.63330078 -23.77204102 284.63330078 -23.09204102 284.63330078 C-23.09204102 283.64330078 -23.09204102 282.65330078 -23.09204102 281.63330078 C-22.43204102 281.63330078 -21.77204102 281.63330078 -21.09204102 281.63330078 C-21.20305077 278.44515487 -21.33340281 275.25807202 -21.46704102 272.07080078 C-21.51344727 270.72791992 -21.51344727 270.72791992 -21.56079102 269.35791016 C-21.7897604 264.14885662 -22.20454655 259.51895822 -24.09204102 254.63330078 C-25.08204102 253.97330078 -26.07204102 253.31330078 -27.09204102 252.63330078 C-27.30860352 251.39580078 -27.30860352 251.39580078 -27.52954102 250.13330078 C-27.71516602 249.30830078 -27.90079102 248.48330078 -28.09204102 247.63330078 C-29.89136681 246.56613375 -29.89136681 246.56613375 -32.09204102 245.63330078 C-33.75870768 243.96663411 -35.42537435 242.29996745 -37.09204102 240.63330078 C-38.08204102 240.30330078 -39.07204102 239.97330078 -40.09204102 239.63330078 C-40.77954102 237.57080078 -40.77954102 237.57080078 -41.09204102 235.63330078 C-41.92928711 235.43027344 -41.92928711 235.43027344 -42.78344727 235.22314453 C-45.21739431 234.60127312 -47.62164177 233.91186327 -50.02954102 233.19580078 C-50.86356445 232.94958984 -51.69758789 232.70337891 -52.55688477 232.44970703 C-55.09204102 231.63330078 -55.09204102 231.63330078 -57.38891602 230.66845703 C-60.99019726 229.28935367 -64.66007204 228.41179195 -68.40454102 227.50830078 C-69.14510742 227.32654297 -69.88567383 227.14478516 -70.64868164 226.95751953 C-72.46234502 226.51287948 -74.27708709 226.07264333 -76.09204102 225.63330078 C-76.09204102 224.97330078 -76.09204102 224.31330078 -76.09204102 223.63330078 C-76.63989258 223.59591797 -77.18774414 223.55853516 -77.75219727 223.52001953 C-85.67009593 222.8634133 -93.33326974 221.27816029 -101.09204102 219.63330078 C-101.09204102 218.97330078 -101.09204102 218.31330078 -101.09204102 217.63330078 C-101.69145508 217.64232422 -102.29086914 217.65134766 -102.90844727 217.66064453 C-118.54029461 217.14921852 -134.01061104 210.66426687 -148.44360352 205.03564453 C-152.11268369 203.62536639 -155.81078433 202.34342434 -159.52954102 201.07080078 C-165.82435449 198.84063829 -172.2970808 196.428261 -177.09204102 191.63330078 C-178.26766602 191.22080078 -179.44329102 190.80830078 -180.65454102 190.38330078 C-188.32118873 187.59417984 -194.5880579 182.32910414 -201.02954102 177.44580078 C-201.59761475 177.01775146 -202.16568848 176.58970215 -202.75097656 176.14868164 C-205.40270235 174.10738481 -207.21650916 172.44659857 -209.09204102 169.63330078 C-210.08204102 169.30330078 -211.07204102 168.97330078 -212.09204102 168.63330078 C-213.26782227 167.03173828 -213.26782227 167.03173828 -214.40454102 165.00830078 C-216.12235612 162.10560718 -217.90114593 159.58026349 -220.15454102 157.07080078 C-223.05245434 153.81530432 -225.02729927 150.46782116 -227.09204102 146.63330078 C-227.75204102 145.64330078 -228.41204102 144.65330078 -229.09204102 143.63330078 C-229.50610352 141.15283203 -229.50610352 141.15283203 -229.71704102 138.44580078 C-229.79180664 137.54474609 -229.86657227 136.64369141 -229.94360352 135.71533203 C-229.99258789 135.02826172 -230.04157227 134.34119141 -230.09204102 133.63330078 C-230.75204102 133.63330078 -231.41204102 133.63330078 -232.09204102 133.63330078 C-232.60082402 132.0736386 -233.0986757 130.51040837 -233.59204102 128.94580078 C-233.87047852 128.07568359 -234.14891602 127.20556641 -234.43579102 126.30908203 C-235.09054907 123.63938401 -235.21035596 121.36933395 -235.09204102 118.63330078 C-235.75204102 118.63330078 -236.41204102 118.63330078 -237.09204102 118.63330078 C-237.1676272 114.49311593 -237.22129975 110.3533232 -237.25683594 106.21264648 C-237.27168873 104.81153346 -237.29197657 103.41046483 -237.31835938 102.00952148 C-237.50536493 91.80488488 -236.48164389 82.57695829 -234.09204102 72.63330078 C-233.43204102 72.63330078 -232.77204102 72.63330078 -232.09204102 72.63330078 C-232.09204102 71.97330078 -232.09204102 71.31330078 -232.09204102 70.63330078 C-231.43204102 70.63330078 -230.77204102 70.63330078 -230.09204102 70.63330078 C-229.76204102 67.66330078 -229.43204102 64.69330078 -229.09204102 61.63330078 C-228.43204102 61.63330078 -227.77204102 61.63330078 -227.09204102 61.63330078 C-227.00567383 61.06482422 -226.91930664 60.49634766 -226.83032227 59.91064453 C-225.73789138 53.90728583 -223.83069696 50.42644943 -220.09204102 45.63330078 C-219.76204102 44.64330078 -219.43204102 43.65330078 -219.09204102 42.63330078 C-218.43204102 42.63330078 -217.77204102 42.63330078 -217.09204102 42.63330078 C-216.80780273 41.62009766 -216.80780273 41.62009766 -216.51782227 40.58642578 C-214.50604807 36.41957293 -211.55455137 33.60740001 -208.27954102 30.38330078 C-207.61172607 29.72233398 -206.94391113 29.06136719 -206.25585938 28.38037109 C-198.1610884 20.54146657 -189.85342849 14.28811162 -179.09204102 10.63330078 C-178.10204102 9.14830078 -178.10204102 9.14830078 -177.09204102 7.63330078 C-175.22721457 6.86738992 -173.35476646 6.11454829 -171.44750977 5.46142578 C-168.05962161 4.27032746 -164.78319026 2.82479811 -161.48657227 1.40283203 C-158.89307749 0.56935981 -156.79886212 0.49387305 -154.09204102 0.63330078 C-154.09204102 -0.02669922 -154.09204102 -0.68669922 -154.09204102 -1.36669922 C-151.23981717 -2.04278191 -148.38572809 -2.70775037 -145.52954102 -3.36669922 C-144.32974609 -3.65287109 -144.32974609 -3.65287109 -143.10571289 -3.94482422 C-138.3085857 -5.04131043 -134.01188068 -5.57802119 -129.09204102 -5.36669922 C-129.09204102 -6.02669922 -129.09204102 -6.68669922 -129.09204102 -7.36669922 C-37.80623385 -13.57010849 -37.80623385 -13.57010849 0 0 Z " fill="#E4E4E4" transform="translate(372.092041015625,127.36669921875)"/>
<path d="M0 0 C0 1.32 0 2.64 0 4 C-0.66 4 -1.32 4 -2 4 C-2 3.34 -2 2.68 -2 2 C-2.94054985 2.03758423 -2.94054985 2.03758423 -3.90010071 2.07592773 C-10.4708152 2.33806234 -17.04164549 2.59713582 -23.61254883 2.85449219 C-26.05951947 2.95072409 -28.50646032 3.04771678 -30.95336914 3.14550781 C-34.48576274 3.28654451 -38.0182571 3.42477647 -41.55078125 3.5625 C-42.63144363 3.60624756 -43.71210602 3.64999512 -44.82551575 3.69506836 C-51.55419452 3.9540704 -58.26650704 4.0526099 -65 4 C-62.56652291 1.56652291 -61.84378203 1.71565188 -58.49707031 1.58935547 C-57.56139221 1.54946503 -56.62571411 1.50957458 -55.66168213 1.46847534 C-54.64410828 1.43505035 -53.62653442 1.40162537 -52.578125 1.3671875 C-51.52655212 1.32562531 -50.47497925 1.28406311 -49.39154053 1.24124146 C-47.15556365 1.15458418 -44.91940501 1.07251636 -42.68310547 0.99462891 C-39.30523781 0.8769248 -35.92807006 0.7464715 -32.55078125 0.61328125 C-21.6973957 0.19742191 -10.86272418 -0.15364877 0 0 Z " fill="#393939" transform="translate(233,371)"/>
<path d="M0 0 C3.9326322 0.41396128 7.41778209 0.81552436 11.19921875 2.01367188 C15.066596 3.01728211 18.26173458 3.22951301 22.24609375 3.1953125 C22.90207047 3.1924826 23.55804718 3.18965271 24.23390198 3.18673706 C26.30196409 3.17565984 28.36957173 3.15058063 30.4375 3.125 C31.85090515 3.11495402 33.26431717 3.10583102 34.67773438 3.09765625 C38.11863394 3.07576184 41.55927252 3.04132051 45 3 C45 2.34 45 1.68 45 1 C48.465 0.505 48.465 0.505 52 0 C51.67 0.66 51.34 1.32 51 2 C49.68 2 48.36 2 47 2 C47 2.66 47 3.32 47 4 C42.63422668 4.83644097 38.50507921 5.12859181 34.0625 5.1328125 C32.75539063 5.13410156 31.44828125 5.13539063 30.1015625 5.13671875 C29.42770508 5.13462402 28.75384766 5.1325293 28.05957031 5.13037109 C26.00578426 5.12501508 23.95221685 5.13033445 21.8984375 5.13671875 C20.59132813 5.13542969 19.28421875 5.13414062 17.9375 5.1328125 C16.75027344 5.13168457 15.56304687 5.13055664 14.33984375 5.12939453 C11.1410504 5.00546467 8.14063777 4.60171656 5 4 C5 3.34 5 2.68 5 2 C3.35 2 1.7 2 0 2 C0 1.34 0 0.68 0 0 Z " fill="#919191" transform="translate(273,431)"/>
<path d="M0 0 C0.66 0 1.32 0 2 0 C1.69140975 2.77132017 1.3782967 5.54199986 1.0625 8.3125 C0.97548828 9.09818359 0.88847656 9.88386719 0.79882812 10.69335938 C0.71181641 11.45068359 0.62480469 12.20800781 0.53515625 12.98828125 C0.456604 13.68477783 0.37805176 14.38127441 0.29711914 15.09887695 C0 17 0 17 -1 20 C-1.09303627 21.59425556 -1.13069008 23.19209599 -1.1328125 24.7890625 C-1.13410156 25.73136719 -1.13539063 26.67367187 -1.13671875 27.64453125 C-1.13285156 28.62808594 -1.12898437 29.61164063 -1.125 30.625 C-1.12886719 31.58535156 -1.13273438 32.54570312 -1.13671875 33.53515625 C-1.1287107 39.43708921 -0.76029195 45.14695877 0 51 C-0.33 51 -0.66 51 -1 51 C-1 49.35 -1 47.7 -1 46 C-1.66 46 -2.32 46 -3 46 C-3.07558619 41.85981515 -3.12925873 37.72002241 -3.16479492 33.5793457 C-3.17964771 32.17823268 -3.19993556 30.77716405 -3.22631836 29.3762207 C-3.41332392 19.1715841 -2.38960287 9.9436575 0 0 Z " fill="#868686" transform="translate(138,200)"/>
<path d="M0 0 C0.66 0 1.32 0 2 0 C2 1.32 2 2.64 2 4 C2.66 4 3.32 4 4 4 C4.33 7.96 4.66 11.92 5 16 C15.395 15.505 15.395 15.505 26 15 C22.37504158 16.81247921 21.4048294 17.24864042 17.671875 17.1953125 C16.87265625 17.18886719 16.0734375 17.18242187 15.25 17.17578125 C14.425 17.15902344 13.6 17.14226562 12.75 17.125 C11.90953125 17.11597656 11.0690625 17.10695312 10.203125 17.09765625 C8.13529396 17.07415817 6.06761005 17.03828908 4 17 C1.93775591 11.29259607 0.55055392 6.05609309 0 0 Z " fill="#5C5C5C" transform="translate(338,221)"/>
<path d="M0 0 C0.66 0 1.32 0 2 0 C2.33 1.98 2.66 3.96 3 6 C3.66 6 4.32 6 5 6 C5.33 7.98 5.66 9.96 6 12 C6.66 12 7.32 12 8 12 C8.66 14.64 9.32 17.28 10 20 C10.66 20 11.32 20 12 20 C12.33 21.32 12.66 22.64 13 24 C11.06640625 23.28515625 11.06640625 23.28515625 9 22 C8.27734375 19.87109375 8.27734375 19.87109375 7.9375 17.4375 C7.65741114 15.04681229 7.65741114 15.04681229 7 13 C6.01 12.67 5.02 12.34 4 12 C2.83203125 9.78515625 2.83203125 9.78515625 1.8125 7.0625 C1.46832031 6.16660156 1.12414062 5.27070313 0.76953125 4.34765625 C0 2 0 2 0 0 Z " fill="#8A8A8A" transform="translate(133,428)"/>
<path d="M0 0 C0 1.32 0 2.64 0 4 C-0.66 4 -1.32 4 -2 4 C-2 3.34 -2 2.68 -2 2 C-8.93 2 -15.86 2 -23 2 C-23 1.67 -23 1.34 -23 1 C-15.31068715 -0.06059488 -7.75493514 -0.09928082 0 0 Z " fill="#878787" transform="translate(233,371)"/>
<path d="M0 0 C4.62794919 0.46279492 7.86147859 0.89890451 12 3 C13.57158878 3.42151885 15.15629082 3.7968834 16.75 4.125 C17.54921875 4.29257813 18.3484375 4.46015625 19.171875 4.6328125 C19.77515625 4.75398437 20.3784375 4.87515625 21 5 C17.34606463 6.26823485 14.50929974 5.75715321 10.75 5.0625 C9.67234375 4.86785156 8.5946875 4.67320312 7.484375 4.47265625 C6.25460937 4.23869141 6.25460937 4.23869141 5 4 C5 3.34 5 2.68 5 2 C3.35 2 1.7 2 0 2 C0 1.34 0 0.68 0 0 Z " fill="#8B8B8B" transform="translate(268,242)"/>
<path d="M0 0 C2.26444197 2.26444197 2.41656163 3.18694854 3 6.25 C3.57621007 9.11261162 4.22846658 11.66135063 5.1875 14.4375 C6 17 6 17 5 19 C0.91430759 13.42860126 0 6.76709919 0 0 Z " fill="#8E8E8E" transform="translate(233,379)"/>
<path d="M0 0 C6.55925943 0.38979206 11.94526627 1.42113193 18 4 C14.08263419 5.1700097 11.02040985 4.69584017 7 4 C7 3.34 7 2.68 7 2 C4.69 1.67 2.38 1.34 0 1 C0 0.67 0 0.34 0 0 Z " fill="#909090" transform="translate(291,248)"/>
<path d="M0 0 C0.66 0 1.32 0 2 0 C2 1.32 2 2.64 2 4 C2.66 4 3.32 4 4 4 C4.33 7.3 4.66 10.6 5 14 C1.53173569 8.79760354 0.60289074 6.12938917 0 0 Z " fill="#929292" transform="translate(338,221)"/>
<path d="M0 0 C1.41805831 0.28482368 2.83440379 0.57818144 4.25 0.875 C5.03890625 1.03742188 5.8278125 1.19984375 6.640625 1.3671875 C8.96831144 1.99150075 10.89031952 2.84838542 13 4 C13 4.66 13 5.32 13 6 C8.545 5.01 8.545 5.01 4 4 C4 3.34 4 2.68 4 2 C2.68 1.67 1.36 1.34 0 1 C0 0.67 0 0.34 0 0 Z " fill="#686868" transform="translate(318,359)"/>
<path d="M0 0 C2 3 2 3 2 6 C2.66 6 3.32 6 4 6 C4.33 8.31 4.66 10.62 5 13 C2.53686261 11.17251097 1.16571382 9.77023784 0.51171875 6.73046875 C0.27481707 4.48520654 0.09638651 2.25544422 0 0 Z " fill="#525252" transform="translate(138,255)"/>
<path d="M0 0 C0.66 0.33 1.32 0.66 2 1 C0.66511872 4.59391114 -0.96022723 7.75490696 -3 11 C-4 9 -4 9 -3.0625 5.875 C-2.711875 4.92625 -2.36125 3.9775 -2 3 C-1.34 3 -0.68 3 0 3 C0 2.01 0 1.02 0 0 Z " fill="#7C7C7C" transform="translate(453,430)"/>
</svg>
